{
    "accessors": [
        {
            "bufferView": 0,
            "componentType": 5126,
            "count": 2714,
            "max": [
                0.037499960511922836,
                0.037499960511922836,
                0.017250001430511475
            ],
            "min": [
                -0.037499960511922836,
                -0.037499960511922836,
                -0.0172499418258667
            ],
            "name": "mesh0_coord_accessor",
            "type": "VEC3"
        },
        {
            "bufferView": 1,
            "componentType": 5126,
            "count": 2714,
            "max": [
                1.0,
                1.0,
                1.0
            ],
            "min": [
                -1.0,
                -1.0,
                -1.0
            ],
            "name": "mesh0_norm_accessor",
            "type": "VEC3"
        },
        {
            "bufferView": 2,
            "componentType": 5125,
            "count": 2964,
            "max": [
                2713
            ],
            "min": [
                0
            ],
            "name": "mesh0_idx_accessor",
            "type": "SCALAR"
        },
        {
            "bufferView": 3,
            "componentType": 5126,
            "count": 25,
            "max": [
                -0.01517735980451107,
                -0.01517742034047842,
                0.009249933063983917
            ],
            "min": [
                -0.020177660509943962,
                -0.020177660509943962,
                0.007747828960418701
            ],
            "name": "mesh1_coord_accessor",
            "type": "VEC3"
        },
        {
            "bufferView": 4,
            "componentType": 5126,
            "count": 25,
            "max": [
                0.5149956941604614,
                0.5149956941604614,
                1.0
            ],
            "min": [
                -0.5149956941604614,
                -0.5149956941604614,
                0.8571447730064392
            ],
            "name": "mesh1_norm_accessor",
            "type": "VEC3"
        },
        {
            "bufferView": 5,
            "componentType": 5125,
            "count": 72,
            "max": [
                24
            ],
            "min": [
                0
            ],
            "name": "mesh1_idx_accessor",
            "type": "SCALAR"
        },
        {
            "bufferView": 6,
            "componentType": 5126,
            "count": 48,
            "max": [
                -0.01517735980451107,
                -0.01517742034047842,
                0.0172499418258667
            ],
            "min": [
                -0.020177660509943962,
                -0.020177660509943962,
                0.009249933063983917
            ],
            "name": "mesh2_coord_accessor",
            "type": "VEC3"
        },
        {
            "bufferView": 7,
            "componentType": 5126,
            "count": 48,
            "max": [
                1.0,
                1.0,
                -1.5543122344752192e-15
            ],
            "min": [
                -1.0,
                -1.0,
                -1.6767768932639563e-15
            ],
            "name": "mesh2_norm_accessor",
            "type": "VEC3"
        },
        {
            "bufferView": 8,
            "componentType": 5125,
            "count": 144,
            "max": [
                47
            ],
            "min": [
                0
            ],
            "name": "mesh2_idx_accessor",
            "type": "SCALAR"
        },
        {
            "bufferView": 9,
            "componentType": 5126,
            "count": 25,
            "max": [
                0.020177660509943962,
                -0.01517742034047842,
                0.009249933063983917
            ],
            "min": [
                0.01517735980451107,
                -0.020177660509943962,
                0.007747828960418701
            ],
            "name": "mesh3_coord_accessor",
            "type": "VEC3"
        },
        {
            "bufferView": 10,
            "componentType": 5126,
            "count": 25,
            "max": [
                0.5149956941604614,
                0.5149956941604614,
                1.0
            ],
            "min": [
                -0.5149956941604614,
                -0.5149956941604614,
                0.8571447730064392
            ],
            "name": "mesh3_norm_accessor",
            "type": "VEC3"
        },
        {
            "bufferView": 11,
            "componentType": 5125,
            "count": 72,
            "max": [
                24
            ],
            "min": [
                0
            ],
            "name": "mesh3_idx_accessor",
            "type": "SCALAR"
        },
        {
            "bufferView": 12,
            "componentType": 5126,
            "count": 48,
            "max": [
                0.020177660509943962,
                -0.01517742034047842,
                0.0172499418258667
            ],
            "min": [
                0.01517735980451107,
                -0.020177660509943962,
                0.009249933063983917
            ],
            "name": "mesh4_coord_accessor",
            "type": "VEC3"
        },
        {
            "bufferView": 13,
            "componentType": 5126,
            "count": 48,
            "max": [
                1.0,
                1.0,
                -1.5543122344752192e-15
            ],
            "min": [
                -1.0,
                -1.0,
                -1.6767768932639563e-15
            ],
            "name": "mesh4_norm_accessor",
            "type": "VEC3"
        },
        {
            "bufferView": 14,
            "componentType": 5125,
            "count": 144,
            "max": [
                47
            ],
            "min": [
                0
            ],
            "name": "mesh4_idx_accessor",
            "type": "SCALAR"
        },
        {
            "bufferView": 15,
            "componentType": 5126,
            "count": 25,
            "max": [
                0.020177660509943962,
                0.020177600905299187,
                0.009249933063983917
            ],
            "min": [
                0.01517742034047842,
                0.01517735980451107,
                0.007747828960418701
            ],
            "name": "mesh5_coord_accessor",
            "type": "VEC3"
        },
        {
            "bufferView": 16,
            "componentType": 5126,
            "count": 25,
            "max": [
                0.5149956941604614,
                0.5149956941604614,
                1.0
            ],
            "min": [
                -0.5149956941604614,
                -0.5149956941604614,
                0.8571678400039673
            ],
            "name": "mesh5_norm_accessor",
            "type": "VEC3"
        },
        {
            "bufferView": 17,
            "componentType": 5125,
            "count": 72,
            "max": [
                24
            ],
            "min": [
                0
            ],
            "name": "mesh5_idx_accessor",
            "type": "SCALAR"
        },
        {
            "bufferView": 18,
            "componentType": 5126,
            "count": 48,
            "max": [
                0.020177660509943962,
                0.020177600905299187,
                0.017250001430511475
            ],
            "min": [
                0.01517742034047842,
                0.01517735980451107,
                0.009249933063983917
            ],
            "name": "mesh6_coord_accessor",
            "type": "VEC3"
        },
        {
            "bufferView": 19,
            "componentType": 5126,
            "count": 48,
            "max": [
                1.0,
                1.0,
                -1.5543122344752192e-15
            ],
            "min": [
                -1.0,
                -1.0,
                -1.6767768932639563e-15
            ],
            "name": "mesh6_norm_accessor",
            "type": "VEC3"
        },
        {
            "bufferView": 20,
            "componentType": 5125,
            "count": 144,
            "max": [
                47
            ],
            "min": [
                0
            ],
            "name": "mesh6_idx_accessor",
            "type": "SCALAR"
        },
        {
            "bufferView": 21,
            "componentType": 5126,
            "count": 25,
            "max": [
                -0.01517735980451107,
                0.020177660509943962,
                0.009249933063983917
            ],
            "min": [
                -0.020177660509943962,
                0.01517735980451107,
                0.007747828960418701
            ],
            "name": "mesh7_coord_accessor",
            "type": "VEC3"
        },
        {
            "bufferView": 22,
            "componentType": 5126,
            "count": 25,
            "max": [
                0.5149956941604614,
                0.5149956941604614,
                1.0
            ],
            "min": [
                -0.5149956941604614,
                -0.5149956941604614,
                0.8571557998657227
            ],
            "name": "mesh7_norm_accessor",
            "type": "VEC3"
        },
        {
            "bufferView": 23,
            "componentType": 5125,
            "count": 72,
            "max": [
                24
            ],
            "min": [
                0
            ],
            "name": "mesh7_idx_accessor",
            "type": "SCALAR"
        },
        {
            "bufferView": 24,
            "componentType": 5126,
            "count": 48,
            "max": [
                -0.01517735980451107,
                0.020177660509943962,
                0.017250001430511475
            ],
            "min": [
                -0.020177660509943962,
                0.01517735980451107,
                0.009249933063983917
            ],
            "name": "mesh8_coord_accessor",
            "type": "VEC3"
        },
        {
            "bufferView": 25,
            "componentType": 5126,
            "count": 48,
            "max": [
                1.0,
                1.0,
                -1.5543122344752192e-15
            ],
            "min": [
                -1.0,
                -1.0,
                -1.6767768932639563e-15
            ],
            "name": "mesh8_norm_accessor",
            "type": "VEC3"
        },
        {
            "bufferView": 26,
            "componentType": 5125,
            "count": 144,
            "max": [
                47
            ],
            "min": [
                0
            ],
            "name": "mesh8_idx_accessor",
            "type": "SCALAR"
        },
        {
            "bufferView": 27,
            "componentType": 5126,
            "count": 25,
            "max": [
                0.0012499690055847168,
                0.023249920457601547,
                0.016501009464263916
            ],
            "min": [
                -0.001249908935278654,
                0.020749680697917938,
                0.01574993133544922
            ],
            "name": "mesh9_coord_accessor",
            "type": "VEC3"
        },
        {
            "bufferView": 28,
            "componentType": 5126,
            "count": 25,
            "max": [
                0.5150691270828247,
                0.5149956941604614,
                -0.85710209608078
            ],
            "min": [
                -0.5149956941604614,
                -0.5149956941604614,
                -1.0
            ],
            "name": "mesh9_norm_accessor",
            "type": "VEC3"
        },
        {
            "bufferView": 29,
            "componentType": 5125,
            "count": 72,
            "max": [
                24
            ],
            "min": [
                0
            ],
            "name": "mesh9_idx_accessor",
            "type": "SCALAR"
        },
        {
            "bufferView": 30,
            "componentType": 5126,
            "count": 24,
            "max": [
                0.0012499690055847168,
                0.023249920457601547,
                0.007249951362609863
            ],
            "min": [
                -0.001249908935278654,
                0.020749680697917938,
                0.007249951362609863
            ],
            "name": "mesh10_coord_accessor",
            "type": "VEC3"
        },
        {
            "bufferView": 31,
            "componentType": 5126,
            "count": 24,
            "max": [
                -2.097981390461576e-15,
                6.123234262925839e-17,
                1.0
            ],
            "min": [
                -2.097981390461576e-15,
                6.123234262925839e-17,
                1.0
            ],
            "name": "mesh10_norm_accessor",
            "type": "VEC3"
        },
        {
            "bufferView": 32,
            "componentType": 5125,
            "count": 66,
            "max": [
                23
            ],
            "min": [
                0
            ],
            "name": "mesh10_idx_accessor",
            "type": "SCALAR"
        },
        {
            "bufferView": 33,
            "componentType": 5126,
            "count": 48,
            "max": [
                0.0012499690055847168,
                0.023249920457601547,
                0.01574993133544922
            ],
            "min": [
                -0.001249908935278654,
                0.020749680697917938,
                0.007249951362609863
            ],
            "name": "mesh11_coord_accessor",
            "type": "VEC3"
        },
        {
            "bufferView": 34,
            "componentType": 5126,
            "count": 48,
            "max": [
                1.0,
                1.0,
                -1.5543122344752192e-15
            ],
            "min": [
                -1.0,
                -1.0,
                -1.6767768932639563e-15
            ],
            "name": "mesh11_norm_accessor",
            "type": "VEC3"
        },
        {
            "bufferView": 35,
            "componentType": 5125,
            "count": 144,
            "max": [
                47
            ],
            "min": [
                0
            ],
            "name": "mesh11_idx_accessor",
            "type": "SCALAR"
        },
        {
            "bufferView": 36,
            "componentType": 5126,
            "count": 25,
            "max": [
                -0.017802229151129723,
                -0.009749948047101498,
                0.016501009464263916
            ],
            "min": [
                -0.020302530378103256,
                -0.012249699793756008,
                0.01574993133544922
            ],
            "name": "mesh12_coord_accessor",
            "type": "VEC3"
        },
        {
            "bufferView": 37,
            "componentType": 5126,
            "count": 25,
            "max": [
                0.5149956941604614,
                0.5150691270828247,
                -0.8570907115936279
            ],
            "min": [
                -0.5149956941604614,
                -0.515113353729248,
                -1.0
            ],
            "name": "mesh12_norm_accessor",
            "type": "VEC3"
        },
        {
            "bufferView": 38,
            "componentType": 5125,
            "count": 72,
            "max": [
                24
            ],
            "min": [
                0
            ],
            "name": "mesh12_idx_accessor",
            "type": "SCALAR"
        },
        {
            "bufferView": 39,
            "componentType": 5126,
            "count": 24,
            "max": [
                -0.017802229151129723,
                -0.009749948047101498,
                0.007249951362609863
            ],
            "min": [
                -0.020302530378103256,
                -0.012249699793756008,
                0.007249951362609863
            ],
            "name": "mesh13_coord_accessor",
            "type": "VEC3"
        },
        {
            "bufferView": 40,
            "componentType": 5126,
            "count": 24,
            "max": [
                -2.097981390461576e-15,
                6.123234262925839e-17,
                1.0
            ],
            "min": [
                -2.097981390461576e-15,
                6.123234262925839e-17,
                1.0
            ],
            "name": "mesh13_norm_accessor",
            "type": "VEC3"
        },
        {
            "bufferView": 41,
            "componentType": 5125,
            "count": 66,
            "max": [
                23
            ],
            "min": [
                0
            ],
            "name": "mesh13_idx_accessor",
            "type": "SCALAR"
        },
        {
            "bufferView": 42,
            "componentType": 5126,
            "count": 48,
            "max": [
                -0.017802229151129723,
                -0.009749948047101498,
                0.01574993133544922
            ],
            "min": [
                -0.020302530378103256,
                -0.012249699793756008,
                0.007249951362609863
            ],
            "name": "mesh14_coord_accessor",
            "type": "VEC3"
        },
        {
            "bufferView": 43,
            "componentType": 5126,
            "count": 48,
            "max": [
                1.0,
                1.0,
                -1.5543122344752192e-15
            ],
            "min": [
                -1.0,
                -1.0,
                -1.6767768932639563e-15
            ],
            "name": "mesh14_norm_accessor",
            "type": "VEC3"
        },
        {
            "bufferView": 44,
            "componentType": 5125,
            "count": 144,
            "max": [
                47
            ],
            "min": [
                0
            ],
            "name": "mesh14_idx_accessor",
            "type": "SCALAR"
        },
        {
            "bufferView": 45,
            "componentType": 5126,
            "count": 25,
            "max": [
                0.020302530378103256,
                -0.009749948047101498,
                0.016501009464263916
            ],
            "min": [
                0.017802290618419647,
                -0.012249699793756008,
                0.01574993133544922
            ],
            "name": "mesh15_coord_accessor",
            "type": "VEC3"
        },
        {
            "bufferView": 46,
            "componentType": 5126,
            "count": 25,
            "max": [
                0.5149956941604614,
                0.5149956941604614,
                -0.8570907115936279
            ],
            "min": [
                -0.5149956941604614,
                -0.515113353729248,
                -1.0
            ],
            "name": "mesh15_norm_accessor",
            "type": "VEC3"
        },
        {
            "bufferView": 47,
            "componentType": 5125,
            "count": 72,
            "max": [
                24
            ],
            "min": [
                0
            ],
            "name": "mesh15_idx_accessor",
            "type": "SCALAR"
        },
        {
            "bufferView": 48,
            "componentType": 5126,
            "count": 24,
            "max": [
                0.020302530378103256,
                -0.009749948047101498,
                0.007249951362609863
            ],
            "min": [
                0.017802290618419647,
                -0.012249699793756008,
                0.007249951362609863
            ],
            "name": "mesh16_coord_accessor",
            "type": "VEC3"
        },
        {
            "bufferView": 49,
            "componentType": 5126,
            "count": 24,
            "max": [
                -2.097981390461576e-15,
                6.123234262925839e-17,
                1.0
            ],
            "min": [
                -2.097981390461576e-15,
                6.123234262925839e-17,
                1.0
            ],
            "name": "mesh16_norm_accessor",
            "type": "VEC3"
        },
        {
            "bufferView": 50,
            "componentType": 5125,
            "count": 66,
            "max": [
                23
            ],
            "min": [
                0
            ],
            "name": "mesh16_idx_accessor",
            "type": "SCALAR"
        },
        {
            "bufferView": 51,
            "componentType": 5126,
            "count": 48,
            "max": [
                0.020302530378103256,
                -0.009749948047101498,
                0.01574993133544922
            ],
            "min": [
                0.017802290618419647,
                -0.012249699793756008,
                0.007249951362609863
            ],
            "name": "mesh17_coord_accessor",
            "type": "VEC3"
        },
        {
            "bufferView": 52,
            "componentType": 5126,
            "count": 48,
            "max": [
                1.0,
                1.0,
                -1.5543122344752192e-15
            ],
            "min": [
                -1.0,
                -1.0,
                -1.6767768932639563e-15
            ],
            "name": "mesh17_norm_accessor",
            "type": "VEC3"
        },
        {
            "bufferView": 53,
            "componentType": 5125,
            "count": 144,
            "max": [
                47
            ],
            "min": [
                0
            ],
            "name": "mesh17_idx_accessor",
            "type": "SCALAR"
        },
        {
            "bufferView": 54,
            "componentType": 5126,
            "count": 300,
            "max": [
                0.0034999249037355185,
                7.497643912832777e-20,
                0.0012244582176208496
            ],
            "min": [
                -0.0034999249037355185,
                -0.042999979108572006,
                -0.005724549293518066
            ],
            "name": "mesh18_coord_accessor",
            "type": "VEC3"
        },
        {
            "bufferView": 55,
            "componentType": 5126,
            "count": 300,
            "max": [
                1.0,
                1.0,
                0.9927011728286743
            ],
            "min": [
                -1.0,
                -1.0,
                -0.9927131533622742
            ],
            "name": "mesh18_norm_accessor",
            "type": "VEC3"
        },
        {
            "bufferView": 56,
            "componentType": 5125,
            "count": 300,
            "max": [
                299
            ],
            "min": [
                0
            ],
            "name": "mesh18_idx_accessor",
            "type": "SCALAR"
        }
    ],
    "asset": {
        "generator": "ONSHAPE BY PTC INC, 1.200",
        "version": "2.0"
    },
    "bufferViews": [
        {
            "buffer": 0,
            "byteLength": 32568,
            "name": "mesh0_coord_bufferView",
            "target": 34962
        },
        {
            "buffer": 0,
            "byteLength": 32568,
            "byteOffset": 32568,
            "name": "mesh0_norm_bufferView",
            "target": 34962
        },
        {
            "buffer": 0,
            "byteLength": 11856,
            "byteOffset": 65136,
            "name": "mesh0_idx_bufferView",
            "target": 34963
        },
        {
            "buffer": 0,
            "byteLength": 300,
            "byteOffset": 76992,
            "name": "mesh1_coord_bufferView",
            "target": 34962
        },
        {
            "buffer": 0,
            "byteLength": 300,
            "byteOffset": 77292,
            "name": "mesh1_norm_bufferView",
            "target": 34962
        },
        {
            "buffer": 0,
            "byteLength": 288,
            "byteOffset": 77592,
            "name": "mesh1_idx_bufferView",
            "target": 34963
        },
        {
            "buffer": 0,
            "byteLength": 576,
            "byteOffset": 77880,
            "name": "mesh2_coord_bufferView",
            "target": 34962
        },
        {
            "buffer": 0,
            "byteLength": 576,
            "byteOffset": 78456,
            "name": "mesh2_norm_bufferView",
            "target": 34962
        },
        {
            "buffer": 0,
            "byteLength": 576,
            "byteOffset": 79032,
            "name": "mesh2_idx_bufferView",
            "target": 34963
        },
        {
            "buffer": 0,
            "byteLength": 300,
            "byteOffset": 79608,
            "name": "mesh3_coord_bufferView",
            "target": 34962
        },
        {
            "buffer": 0,
            "byteLength": 300,
            "byteOffset": 79908,
            "name": "mesh3_norm_bufferView",
            "target": 34962
        },
        {
            "buffer": 0,
            "byteLength": 288,
            "byteOffset": 80208,
            "name": "mesh3_idx_bufferView",
            "target": 34963
        },
        {
            "buffer": 0,
            "byteLength": 576,
            "byteOffset": 80496,
            "name": "mesh4_coord_bufferView",
            "target": 34962
        },
        {
            "buffer": 0,
            "byteLength": 576,
            "byteOffset": 81072,
            "name": "mesh4_norm_bufferView",
            "target": 34962
        },
        {
            "buffer": 0,
            "byteLength": 576,
            "byteOffset": 81648,
            "name": "mesh4_idx_bufferView",
            "target": 34963
        },
        {
            "buffer": 0,
            "byteLength": 300,
            "byteOffset": 82224,
            "name": "mesh5_coord_bufferView",
            "target": 34962
        },
        {
            "buffer": 0,
            "byteLength": 300,
            "byteOffset": 82524,
            "name": "mesh5_norm_bufferView",
            "target": 34962
        },
        {
            "buffer": 0,
            "byteLength": 288,
            "byteOffset": 82824,
            "name": "mesh5_idx_bufferView",
            "target": 34963
        },
        {
            "buffer": 0,
            "byteLength": 576,
            "byteOffset": 83112,
            "name": "mesh6_coord_bufferView",
            "target": 34962
        },
        {
            "buffer": 0,
            "byteLength": 576,
            "byteOffset": 83688,
            "name": "mesh6_norm_bufferView",
            "target": 34962
        },
        {
            "buffer": 0,
            "byteLength": 576,
            "byteOffset": 84264,
            "name": "mesh6_idx_bufferView",
            "target": 34963
        },
        {
            "buffer": 0,
            "byteLength": 300,
            "byteOffset": 84840,
            "name": "mesh7_coord_bufferView",
            "target": 34962
        },
        {
            "buffer": 0,
            "byteLength": 300,
            "byteOffset": 85140,
            "name": "mesh7_norm_bufferView",
            "target": 34962
        },
        {
            "buffer": 0,
            "byteLength": 288,
            "byteOffset": 85440,
            "name": "mesh7_idx_bufferView",
            "target": 34963
        },
        {
            "buffer": 0,
            "byteLength": 576,
            "byteOffset": 85728,
            "name": "mesh8_coord_bufferView",
            "target": 34962
        },
        {
            "buffer": 0,
            "byteLength": 576,
            "byteOffset": 86304,
            "name": "mesh8_norm_bufferView",
            "target": 34962
        },
        {
            "buffer": 0,
            "byteLength": 576,
            "byteOffset": 86880,
            "name": "mesh8_idx_bufferView",
            "target": 34963
        },
        {
            "buffer": 0,
            "byteLength": 300,
            "byteOffset": 87456,
            "name": "mesh9_coord_bufferView",
            "target": 34962
        },
        {
            "buffer": 0,
            "byteLength": 300,
            "byteOffset": 87756,
            "name": "mesh9_norm_bufferView",
            "target": 34962
        },
        {
            "buffer": 0,
            "byteLength": 288,
            "byteOffset": 88056,
            "name": "mesh9_idx_bufferView",
            "target": 34963
        },
        {
            "buffer": 0,
            "byteLength": 288,
            "byteOffset": 88344,
            "name": "mesh10_coord_bufferView",
            "target": 34962
        },
        {
            "buffer": 0,
            "byteLength": 288,
            "byteOffset": 88632,
            "name": "mesh10_norm_bufferView",
            "target": 34962
        },
        {
            "buffer": 0,
            "byteLength": 264,
            "byteOffset": 88920,
            "name": "mesh10_idx_bufferView",
            "target": 34963
        },
        {
            "buffer": 0,
            "byteLength": 576,
            "byteOffset": 89184,
            "name": "mesh11_coord_bufferView",
            "target": 34962
        },
        {
            "buffer": 0,
            "byteLength": 576,
            "byteOffset": 89760,
            "name": "mesh11_norm_bufferView",
            "target": 34962
        },
        {
            "buffer": 0,
            "byteLength": 576,
            "byteOffset": 90336,
            "name": "mesh11_idx_bufferView",
            "target": 34963
        },
        {
            "buffer": 0,
            "byteLength": 300,
            "byteOffset": 90912,
            "name": "mesh12_coord_bufferView",
            "target": 34962
        },
        {
            "buffer": 0,
            "byteLength": 300,
            "byteOffset": 91212,
            "name": "mesh12_norm_bufferView",
            "target": 34962
        },
        {
            "buffer": 0,
            "byteLength": 288,
            "byteOffset": 91512,
            "name": "mesh12_idx_bufferView",
            "target": 34963
        },
        {
            "buffer": 0,
            "byteLength": 288,
            "byteOffset": 91800,
            "name": "mesh13_coord_bufferView",
            "target": 34962
        },
        {
            "buffer": 0,
            "byteLength": 288,
            "byteOffset": 92088,
            "name": "mesh13_norm_bufferView",
            "target": 34962
        },
        {
            "buffer": 0,
            "byteLength": 264,
            "byteOffset": 92376,
            "name": "mesh13_idx_bufferView",
            "target": 34963
        },
        {
            "buffer": 0,
            "byteLength": 576,
            "byteOffset": 92640,
            "name": "mesh14_coord_bufferView",
            "target": 34962
        },
        {
            "buffer": 0,
            "byteLength": 576,
            "byteOffset": 93216,
            "name": "mesh14_norm_bufferView",
            "target": 34962
        },
        {
            "buffer": 0,
            "byteLength": 576,
            "byteOffset": 93792,
            "name": "mesh14_idx_bufferView",
            "target": 34963
        },
        {
            "buffer": 0,
            "byteLength": 300,
            "byteOffset": 94368,
            "name": "mesh15_coord_bufferView",
            "target": 34962
        },
        {
            "buffer": 0,
            "byteLength": 300,
            "byteOffset": 94668,
            "name": "mesh15_norm_bufferView",
            "target": 34962
        },
        {
            "buffer": 0,
            "byteLength": 288,
            "byteOffset": 94968,
            "name": "mesh15_idx_bufferView",
            "target": 34963
        },
        {
            "buffer": 0,
            "byteLength": 288,
            "byteOffset": 95256,
            "name": "mesh16_coord_bufferView",
            "target": 34962
        },
        {
            "buffer": 0,
            "byteLength": 288,
            "byteOffset": 95544,
            "name": "mesh16_norm_bufferView",
            "target": 34962
        },
        {
            "buffer": 0,
            "byteLength": 264,
            "byteOffset": 95832,
            "name": "mesh16_idx_bufferView",
            "target": 34963
        },
        {
            "buffer": 0,
            "byteLength": 576,
            "byteOffset": 96096,
            "name": "mesh17_coord_bufferView",
            "target": 34962
        },
        {
            "buffer": 0,
            "byteLength": 576,
            "byteOffset": 96672,
            "name": "mesh17_norm_bufferView",
            "target": 34962
        },
        {
            "buffer": 0,
            "byteLength": 576,
            "byteOffset": 97248,
            "name": "mesh17_idx_bufferView",
            "target": 34963
        },
        {
            "buffer": 0,
            "byteLength": 3600,
            "byteOffset": 97824,
            "name": "mesh18_coord_bufferView",
            "target": 34962
        },
        {
            "buffer": 0,
            "byteLength": 3600,
            "byteOffset": 101424,
            "name": "mesh18_norm_bufferView",
            "target": 34962
        },
        {
            "buffer": 0,
            "byteLength": 1200,
            "byteOffset": 105024,
            "name": "mesh18_idx_bufferView",
            "target": 34963
        }
    ],
    "buffers": [
        {
            "byteLength": 106224,
            "name": "Total_buffer",
            "uri": "data:application/octet-stream;base64,"
        }
    ],
    "extensionsUsed": [
        "PTC_onshape_metadata"
    ],
    "materials": [
        {
            "doubleSided": true,
            "name": "0.215686_0.215686_0.215686_0.000000_0.000000",
            "pbrMetallicRoughness": {
                "baseColorFactor": [
                    0.21568627655506134,
                    0.21568627655506134,
                    0.21568627655506134,
                    1.0
                ],
                "metallicFactor": 0.0
            }
        },
        {
            "doubleSided": true,
            "name": "0.098039_0.101961_0.109804_0.000000_0.000000",
            "pbrMetallicRoughness": {
                "baseColorFactor": [
                    0.09803921729326248,
                    0.10196078568696976,
                    0.10980392247438431,
                    1.0
                ],
                "metallicFactor": 0.0
            }
        }
    ],
    "meshes": [
        {
            "name": "mesh0_mesh",
            "primitives": [
                {
                    "attributes": {
                        "NORMAL": 1,
                        "POSITION": 0
                    },
                    "indices": 2,
                    "material": 0
                },
                {
                    "attributes": {
                        "NORMAL": 4,
                        "POSITION": 3
                    },
                    "indices": 5,
                    "material": 0
                },
                {
                    "attributes": {
                        "NORMAL": 7,
                        "POSITION": 6
                    },
                    "indices": 8,
                    "material": 1
                },
                {
                    "attributes": {
                        "NORMAL": 10,
                        "POSITION": 9
                    },
                    "indices": 11,
                    "material": 0
                },
                {
                    "attributes": {
                        "NORMAL": 13,
                        "POSITION": 12
                    },
                    "indices": 14,
                    "material": 1
                },
                {
                    "attributes": {
                        "NORMAL": 16,
                        "POSITION": 15
                    },
                    "indices": 17,
                    "material": 0
                },
                {
                    "attributes": {
                        "NORMAL": 19,
                        "POSITION": 18
                    },
                    "indices": 20,
                    "material": 1
                },
                {
                    "attributes": {
                        "NORMAL": 22,
                        "POSITION": 21
                    },
                    "indices": 23,
                    "material": 0
                },
                {
                    "attributes": {
                        "NORMAL": 25,
                        "POSITION": 24
                    },
                    "indices": 26,
                    "material": 1
                },
                {
                    "attributes": {
                        "NORMAL": 28,
                        "POSITION": 27
                    },
                    "indices": 29,
                    "material": 0
                },
                {
                    "attributes": {
                        "NORMAL": 31,
                        "POSITION": 30
                    },
                    "indices": 32,
                    "material": 0
                },
                {
                    "attributes": {
                        "NORMAL": 34,
                        "POSITION": 33
                    },
                    "indices": 35,
                    "material": 1
                },
                {
                    "attributes": {
                        "NORMAL": 37,
                        "POSITION": 36
                    },
                    "indices": 38,
                    "material": 0
                },
                {
                    "attributes": {
                        "NORMAL": 40,
                        "POSITION": 39
                    },
                    "indices": 41,
                    "material": 0
                },
                {
                    "attributes": {
                        "NORMAL": 43,
                        "POSITION": 42
                    },
                    "indices": 44,
                    "material": 1
                },
                {
                    "attributes": {
                        "NORMAL": 46,
                        "POSITION": 45
                    },
                    "indices": 47,
                    "material": 0
                },
                {
                    "attributes": {
                        "NORMAL": 49,
                        "POSITION": 48
                    },
                    "indices": 50,
                    "material": 0
                },
                {
                    "attributes": {
                        "NORMAL": 52,
                        "POSITION": 51
                    },
                    "indices": 53,
                    "material": 1
                },
                {
                    "attributes": {
                        "NORMAL": 55,
                        "POSITION": 54
                    },
                    "indices": 56,
                    "material": 1
                }
            ]
        }
    ],
    "nodes": [
        {
            "extensions": {
                "PTC_onshape_metadata": {
                    "entity_type": "Body",
                    "id": [
                        "JFD"
                    ],
                    "onshape_body_id": "55"
                }
            },
            "mesh": 0,
            "name": "Actor0_001"
        }
    ],
    "scene": 0,
    "scenes": [
        {
            "name": "Root",
            "nodes": [
                0
            ]
        }
    ]
}