{
    "accessors": [
        {
            "bufferView": 0,
            "componentType": 5126,
            "count": 3317,
            "max": [
                0.031537771224975586,
                0.03778752684593201,
                0.020852787420153618
            ],
            "min": [
                -0.03153245151042938,
                -0.031653646379709244,
                -0.020909953862428665
            ],
            "name": "mesh0_coord_accessor",
            "type": "VEC3"
        },
        {
            "bufferView": 1,
            "componentType": 5126,
            "count": 3317,
            "max": [
                0.9997541904449463,
                1.0,
                1.0
            ],
            "min": [
                -0.9999865889549255,
                -0.9998633861541748,
                -1.0
            ],
            "name": "mesh0_norm_accessor",
            "type": "VEC3"
        },
        {
            "bufferView": 2,
            "componentType": 5125,
            "count": 3381,
            "max": [
                3316
            ],
            "min": [
                0
            ],
            "name": "mesh0_idx_accessor",
            "type": "SCALAR"
        }
    ],
    "asset": {
        "generator": "ONSHAPE BY PTC INC, 1.199",
        "version": "2.0"
    },
    "bufferViews": [
        {
            "buffer": 0,
            "byteLength": 39804,
            "name": "mesh0_coord_bufferView",
            "target": 34962
        },
        {
            "buffer": 0,
            "byteLength": 39804,
            "byteOffset": 39804,
            "name": "mesh0_norm_bufferView",
            "target": 34962
        },
        {
            "buffer": 0,
            "byteLength": 13524,
            "byteOffset": 79608,
            "name": "mesh0_idx_bufferView",
            "target": 34963
        }
    ],
    "buffers": [
        {
            "byteLength": 93132,
            "name": "Total_buffer",
            "uri": "data:application/octet-stream;base64,"
        }
    ],
    "extensionsUsed": [
        "PTC_onshape_metadata"
    ],
    "materials": [
        {
            "doubleSided": true,
            "name": "0.819608_0.819608_0.819608_0.000000_0.000000",
            "pbrMetallicRoughness": {
                "baseColorFactor": [
                    0.8196078538894653,
                    0.8196078538894653,
                    0.8196078538894653,
                    1.0
                ],
                "metallicFactor": 0.0
            }
        }
    ],
    "meshes": [
        {
            "name": "mesh0_mesh",
            "primitives": [
                {
                    "attributes": {
                        "NORMAL": 1,
                        "POSITION": 0
                    },
                    "indices": 2,
                    "material": 0
                }
            ]
        }
    ],
    "nodes": [
        {
            "extensions": {
                "PTC_onshape_metadata": {
                    "entity_type": "Body",
                    "id": [
                        "JFD"
                    ],
                    "onshape_body_id": "61"
                }
            },
            "mesh": 0,
            "name": "eSeries_UR3e_002"
        }
    ],
    "scene": 0,
    "scenes": [
        {
            "name": "Root",
            "nodes": [
                0
            ]
        }
    ]
}