{
    "accessors": [
        {
            "bufferView": 0,
            "componentType": 5126,
            "count": 7308,
            "max": [
                0.06400875747203827,
                0.0639849603176117,
                0.0851442739367485
            ],
            "min": [
                -0.06398770213127136,
                -0.06399297714233398,
                -1.420789573794967e-17
            ],
            "name": "mesh0_coord_accessor",
            "type": "VEC3"
        },
        {
            "bufferView": 1,
            "componentType": 5126,
            "count": 7308,
            "max": [
                0.9999939203262329,
                0.9998571872711182,
                1.0
            ],
            "min": [
                -0.9998264312744141,
                -0.9996946454048157,
                -1.0
            ],
            "name": "mesh0_norm_accessor",
            "type": "VEC3"
        },
        {
            "bufferView": 2,
            "componentType": 5125,
            "count": 7308,
            "max": [
                7307
            ],
            "min": [
                0
            ],
            "name": "mesh0_idx_accessor",
            "type": "SCALAR"
        },
        {
            "bufferView": 3,
            "componentType": 5126,
            "count": 39,
            "max": [
                0.0034149200655519962,
                0.030541999265551567,
                -0.03020229935646057
            ],
            "min": [
                0.0033631399273872375,
                0.029500000178813934,
                -0.03028310090303421
            ],
            "name": "mesh1_coord_accessor",
            "type": "VEC3"
        },
        {
            "bufferView": 4,
            "componentType": 5126,
            "count": 39,
            "max": [
                1.0,
                9.99993717414327e-05,
                0.8163132667541504
            ],
            "min": [
                0.5776094198226929,
                -0.00029998290119692683,
                -1.6155445638695877e-15
            ],
            "name": "mesh1_norm_accessor",
            "type": "VEC3"
        },
        {
            "bufferView": 5,
            "componentType": 5125,
            "count": 111,
            "max": [
                38
            ],
            "min": [
                0
            ],
            "name": "mesh1_idx_accessor",
            "type": "SCALAR"
        },
        {
            "bufferView": 6,
            "componentType": 5126,
            "count": 9,
            "max": [
                0.009563489817082882,
                0.03190169855952263,
                -0.028071099892258644
            ],
            "min": [
                0.009563229978084564,
                0.029500000178813934,
                -0.028118200600147247
            ],
            "name": "mesh2_coord_accessor",
            "type": "VEC3"
        },
        {
            "bufferView": 7,
            "componentType": 5126,
            "count": 9,
            "max": [
                1.0,
                0.00019999999494757503,
                9.999999747378752e-05
            ],
            "min": [
                1.0,
                -2.2204459931571278e-20,
                -9.999999747378752e-05
            ],
            "name": "mesh2_norm_accessor",
            "type": "VEC3"
        },
        {
            "bufferView": 8,
            "componentType": 5125,
            "count": 21,
            "max": [
                8
            ],
            "min": [
                0
            ],
            "name": "mesh2_idx_accessor",
            "type": "SCALAR"
        },
        {
            "bufferView": 9,
            "componentType": 5126,
            "count": 2610,
            "max": [
                0.04497629404067993,
                0.044999416917562485,
                0.09494876116514206
            ],
            "min": [
                -0.04501071572303772,
                -0.044982824474573135,
                0.08511433750391006
            ],
            "name": "mesh3_coord_accessor",
            "type": "VEC3"
        },
        {
            "bufferView": 10,
            "componentType": 5126,
            "count": 2610,
            "max": [
                0.9998651742935181,
                0.999991238117218,
                1.0
            ],
            "min": [
                -0.999732255935669,
                -0.9989914894104004,
                -1.0
            ],
            "name": "mesh3_norm_accessor",
            "type": "VEC3"
        },
        {
            "bufferView": 11,
            "componentType": 5125,
            "count": 2610,
            "max": [
                2609
            ],
            "min": [
                0
            ],
            "name": "mesh3_idx_accessor",
            "type": "SCALAR"
        },
        {
            "bufferView": 12,
            "componentType": 5126,
            "count": 40,
            "max": [
                0.003414910053834319,
                0.030541999265551567,
                0.03028310090303421
            ],
            "min": [
                0.0033631399273872375,
                0.029500000178813934,
                0.03020229935646057
            ],
            "name": "mesh4_coord_accessor",
            "type": "VEC3"
        },
        {
            "bufferView": 13,
            "componentType": 5126,
            "count": 40,
            "max": [
                1.0,
                0.0001000016272882931,
                -1.6155445638695877e-15
            ],
            "min": [
                0.5776094198226929,
                -0.0014999426202848554,
                -0.8163132667541504
            ],
            "name": "mesh4_norm_accessor",
            "type": "VEC3"
        },
        {
            "bufferView": 14,
            "componentType": 5125,
            "count": 114,
            "max": [
                39
            ],
            "min": [
                0
            ],
            "name": "mesh4_idx_accessor",
            "type": "SCALAR"
        }
    ],
    "asset": {
        "generator": "ONSHAPE BY PTC INC, 1.199",
        "version": "2.0"
    },
    "bufferViews": [
        {
            "buffer": 0,
            "byteLength": 87696,
            "name": "mesh0_coord_bufferView",
            "target": 34962
        },
        {
            "buffer": 0,
            "byteLength": 87696,
            "byteOffset": 87696,
            "name": "mesh0_norm_bufferView",
            "target": 34962
        },
        {
            "buffer": 0,
            "byteLength": 29232,
            "byteOffset": 175392,
            "name": "mesh0_idx_bufferView",
            "target": 34963
        },
        {
            "buffer": 0,
            "byteLength": 468,
            "byteOffset": 204624,
            "name": "mesh1_coord_bufferView",
            "target": 34962
        },
        {
            "buffer": 0,
            "byteLength": 468,
            "byteOffset": 205092,
            "name": "mesh1_norm_bufferView",
            "target": 34962
        },
        {
            "buffer": 0,
            "byteLength": 444,
            "byteOffset": 205560,
            "name": "mesh1_idx_bufferView",
            "target": 34963
        },
        {
            "buffer": 0,
            "byteLength": 108,
            "byteOffset": 206004,
            "name": "mesh2_coord_bufferView",
            "target": 34962
        },
        {
            "buffer": 0,
            "byteLength": 108,
            "byteOffset": 206112,
            "name": "mesh2_norm_bufferView",
            "target": 34962
        },
        {
            "buffer": 0,
            "byteLength": 84,
            "byteOffset": 206220,
            "name": "mesh2_idx_bufferView",
            "target": 34963
        },
        {
            "buffer": 0,
            "byteLength": 31320,
            "byteOffset": 206304,
            "name": "mesh3_coord_bufferView",
            "target": 34962
        },
        {
            "buffer": 0,
            "byteLength": 31320,
            "byteOffset": 237624,
            "name": "mesh3_norm_bufferView",
            "target": 34962
        },
        {
            "buffer": 0,
            "byteLength": 10440,
            "byteOffset": 268944,
            "name": "mesh3_idx_bufferView",
            "target": 34963
        },
        {
            "buffer": 0,
            "byteLength": 480,
            "byteOffset": 279384,
            "name": "mesh4_coord_bufferView",
            "target": 34962
        },
        {
            "buffer": 0,
            "byteLength": 480,
            "byteOffset": 279864,
            "name": "mesh4_norm_bufferView",
            "target": 34962
        },
        {
            "buffer": 0,
            "byteLength": 456,
            "byteOffset": 280344,
            "name": "mesh4_idx_bufferView",
            "target": 34963
        }
    ],
    "buffers": [
        {
            "byteLength": 280800,
            "name": "Total_buffer",
            "uri": "data:application/octet-stream;base64,"
        }
    ],
    "extensionsUsed": [
        "PTC_onshape_metadata"
    ],
    "materials": [
        {
            "doubleSided": true,
            "name": "0.278431_0.278431_0.278431_0.000000_0.000000",
            "pbrMetallicRoughness": {
                "baseColorFactor": [
                    0.27843138575553894,
                    0.27843138575553894,
                    0.27843138575553894,
                    1.0
                ],
                "metallicFactor": 0.0
            }
        },
        {
            "doubleSided": true,
            "name": "0.792157_0.819608_0.933333_0.000000_0.000000",
            "pbrMetallicRoughness": {
                "baseColorFactor": [
                    0.7921568751335144,
                    0.8196078538894653,
                    0.9333333373069763,
                    1.0
                ],
                "metallicFactor": 0.0
            }
        },
        {
            "doubleSided": true,
            "name": "0.031373_0.031373_0.031373_0.000000_0.000000",
            "pbrMetallicRoughness": {
                "baseColorFactor": [
                    0.0313725508749485,
                    0.0313725508749485,
                    0.0313725508749485,
                    1.0
                ],
                "metallicFactor": 0.0
            }
        }
    ],
    "meshes": [
        {
            "name": "mesh0_mesh",
            "primitives": [
                {
                    "attributes": {
                        "NORMAL": 1,
                        "POSITION": 0
                    },
                    "indices": 2,
                    "material": 0
                }
            ]
        },
        {
            "name": "mesh1_mesh",
            "primitives": [
                {
                    "attributes": {
                        "NORMAL": 4,
                        "POSITION": 3
                    },
                    "indices": 5,
                    "material": 1
                }
            ]
        },
        {
            "name": "mesh2_mesh",
            "primitives": [
                {
                    "attributes": {
                        "NORMAL": 7,
                        "POSITION": 6
                    },
                    "indices": 8,
                    "material": 1
                }
            ]
        },
        {
            "name": "mesh3_mesh",
            "primitives": [
                {
                    "attributes": {
                        "NORMAL": 10,
                        "POSITION": 9
                    },
                    "indices": 11,
                    "material": 2
                }
            ]
        },
        {
            "name": "mesh4_mesh",
            "primitives": [
                {
                    "attributes": {
                        "NORMAL": 13,
                        "POSITION": 12
                    },
                    "indices": 14,
                    "material": 1
                }
            ]
        }
    ],
    "nodes": [
        {
            "extensions": {
                "PTC_onshape_metadata": {
                    "entity_type": "Body",
                    "id": [
                        "JFP"
                    ],
                    "onshape_body_id": "191"
                }
            },
            "mesh": 0,
            "name": "eSeries_UR3e_014"
        },
        {
            "extensions": {
                "PTC_onshape_metadata": {
                    "entity_type": "Body",
                    "id": [
                        "JFD"
                    ],
                    "onshape_body_id": "60"
                }
            },
            "mesh": 1,
            "name": "mesh60"
        },
        {
            "extensions": {
                "PTC_onshape_metadata": {
                    "entity_type": "Body",
                    "id": [
                        "JFL"
                    ],
                    "onshape_body_id": "147"
                }
            },
            "mesh": 2,
            "name": "mesh72"
        },
        {
            "extensions": {
                "PTC_onshape_metadata": {
                    "entity_type": "Body",
                    "id": [
                        "JFT"
                    ],
                    "onshape_body_id": "235"
                }
            },
            "mesh": 3,
            "name": "eSeries_UR3e_011"
        },
        {
            "extensions": {
                "PTC_onshape_metadata": {
                    "entity_type": "Body",
                    "id": [
                        "JFH"
                    ],
                    "onshape_body_id": "104"
                }
            },
            "mesh": 4,
            "name": "mesh61"
        }
    ],
    "scene": 0,
    "scenes": [
        {
            "name": "Root",
            "nodes": [
                0,
                1,
                2,
                3,
                4
            ]
        }
    ]
}